<svg width="40" height="40" viewBox="0 0 40 40" fill="none" xmlns="http://www.w3.org/2000/svg">
  <path d="M20 40C31.0457 40 40 31.0457 40 20C40 8.9543 31.0457 0 20 0C8.9543 0 0 8.9543 0 20C0 31.0457 8.9543 40 20 40Z" fill="#0052FF"/>
  <path d="M20.0001 6.66669C12.6334 6.66669 6.66675 12.6334 6.66675 20C6.66675 27.3667 12.6334 33.3334 20.0001 33.3334C27.3667 33.3334 33.3334 27.3667 33.3334 20C33.3334 12.6334 27.3667 6.66669 20.0001 6.66669ZM16.0001 25.8334C15.0834 25.8334 14.3334 25.0834 14.3334 24.1667V15.8334C14.3334 14.9167 15.0834 14.1667 16.0001 14.1667H24.0001C24.9167 14.1667 25.6667 14.9167 25.6667 15.8334V24.1667C25.6667 25.0834 24.9167 25.8334 24.0001 25.8334H16.0001Z" fill="white"/>
</svg>

