<svg width="24" height="24" viewBox="0 0 24 24" fill="none" xmlns="http://www.w3.org/2000/svg">
  <path d="M12 24C18.6274 24 24 18.6274 24 12C24 5.37258 18.6274 0 12 0C5.37258 0 0 5.37258 0 12C0 18.6274 5.37258 24 12 24Z" fill="white"/>
  <path d="M12.0001 4C7.58008 4 4.00008 7.58 4.00008 12C4.00008 16.42 7.58008 20 12.0001 20C16.4201 20 20.0001 16.42 20.0001 12C20.0001 7.58 16.4201 4 12.0001 4ZM9.60008 15.5C9.05008 15.5 8.60008 15.05 8.60008 14.5V9.5C8.60008 8.95 9.05008 8.5 9.60008 8.5H14.4001C14.9501 8.5 15.4001 8.95 15.4001 9.5V14.5C15.4001 15.05 14.9501 15.5 14.4001 15.5H9.60008Z" fill="#0052FF"/>
</svg>

