<svg width="40" height="40" viewBox="0 0 40 40" fill="none" xmlns="http://www.w3.org/2000/svg">
  <path d="M34.4 3.5L22.1 13.7L24.6 7.4L34.4 3.5Z" fill="#E17726" stroke="#E17726" stroke-width="0.25" stroke-linecap="round" stroke-linejoin="round"/>
  <path d="M5.59998 3.5L17.8 13.8L15.4 7.4L5.59998 3.5Z" fill="#E27625" stroke="#E27625" stroke-width="0.25" stroke-linecap="round" stroke-linejoin="round"/>
  <path d="M29.7 27.5L26.2 33.2L33.7 35.4L35.9 27.6L29.7 27.5Z" fill="#E27625" stroke="#E27625" stroke-width="0.25" stroke-linecap="round" stroke-linejoin="round"/>
  <path d="M4.09998 27.6L6.29998 35.4L13.8 33.2L10.3 27.5L4.09998 27.6Z" fill="#E27625" stroke="#E27625" stroke-width="0.25" stroke-linecap="round" stroke-linejoin="round"/>
  <path d="M13.3 17.6L11.2 21L18.6 21.4L18.3 13.4L13.3 17.6Z" fill="#E27625" stroke="#E27625" stroke-width="0.25" stroke-linecap="round" stroke-linejoin="round"/>
  <path d="M26.7 17.6L21.6 13.3L21.4 21.4L28.8 21L26.7 17.6Z" fill="#E27625" stroke="#E27625" stroke-width="0.25" stroke-linecap="round" stroke-linejoin="round"/>
  <path d="M13.8 33.2L18.1 30.8L14.4 27.7L13.8 33.2Z" fill="#E27625" stroke="#E27625" stroke-width="0.25" stroke-linecap="round" stroke-linejoin="round"/>
  <path d="M21.9 30.8L26.2 33.2L25.6 27.7L21.9 30.8Z" fill="#E27625" stroke="#E27625" stroke-width="0.25" stroke-linecap="round" stroke-linejoin="round"/>
  <path d="M26.2 33.2L21.9 30.8L22.3 34L22.3 35.3L26.2 33.2Z" fill="#D5BFB2" stroke="#D5BFB2" stroke-width="0.25" stroke-linecap="round" stroke-linejoin="round"/>
  <path d="M13.8 33.2L17.7 35.3L17.7 34L18.1 30.8L13.8 33.2Z" fill="#D5BFB2" stroke="#D5BFB2" stroke-width="0.25" stroke-linecap="round" stroke-linejoin="round"/>
  <path d="M17.8 25.5L14.3 24.3L16.8 23L17.8 25.5Z" fill="#233447" stroke="#233447" stroke-width="0.25" stroke-linecap="round" stroke-linejoin="round"/>
  <path d="M22.2 25.5L23.2 23L25.7 24.3L22.2 25.5Z" fill="#233447" stroke="#233447" stroke-width="0.25" stroke-linecap="round" stroke-linejoin="round"/>
  <path d="M13.8 33.2L14.4 27.5L10.3 27.6L13.8 33.2Z" fill="#CC6228" stroke="#CC6228" stroke-width="0.25" stroke-linecap="round" stroke-linejoin="round"/>
  <path d="M25.6 27.5L26.2 33.2L29.7 27.6L25.6 27.5Z" fill="#CC6228" stroke="#CC6228" stroke-width="0.25" stroke-linecap="round" stroke-linejoin="round"/>
  <path d="M28.8 21L21.4 21.4L22.2 25.5L23.2 23L25.7 24.3L28.8 21Z" fill="#CC6228" stroke="#CC6228" stroke-width="0.25" stroke-linecap="round" stroke-linejoin="round"/>
  <path d="M14.3 24.3L16.8 23L17.8 25.5L18.6 21.4L11.2 21L14.3 24.3Z" fill="#CC6228" stroke="#CC6228" stroke-width="0.25" stroke-linecap="round" stroke-linejoin="round"/>
  <path d="M11.2 21L14.4 27.7L14.3 24.3L11.2 21Z" fill="#E27525" stroke="#E27525" stroke-width="0.25" stroke-linecap="round" stroke-linejoin="round"/>
  <path d="M25.7 24.3L25.6 27.7L28.8 21L25.7 24.3Z" fill="#E27525" stroke="#E27525" stroke-width="0.25" stroke-linecap="round" stroke-linejoin="round"/>
  <path d="M18.6 21.4L17.8 25.5L18.8 30.4L19 23.9L18.6 21.4Z" fill="#E27525" stroke="#E27525" stroke-width="0.25" stroke-linecap="round" stroke-linejoin="round"/>
  <path d="M21.4 21.4L21 23.9L21.2 30.4L22.2 25.5L21.4 21.4Z" fill="#E27525" stroke="#E27525" stroke-width="0.25" stroke-linecap="round" stroke-linejoin="round"/>
  <path d="M22.2 25.5L21.2 30.4L21.9 30.8L25.6 27.7L25.7 24.3L22.2 25.5Z" fill="#F5841F" stroke="#F5841F" stroke-width="0.25" stroke-linecap="round" stroke-linejoin="round"/>
  <path d="M14.3 24.3L14.4 27.7L18.1 30.8L18.8 30.4L17.8 25.5L14.3 24.3Z" fill="#F5841F" stroke="#F5841F" stroke-width="0.25" stroke-linecap="round" stroke-linejoin="round"/>
  <path d="M22.3 35.3L22.3 34L21.9 33.7H18.1L17.7 34L17.7 35.3L13.8 33.2L15.5 34.6L18 36.3H22L24.5 34.6L26.2 33.2L22.3 35.3Z" fill="#C0AC9D" stroke="#C0AC9D" stroke-width="0.25" stroke-linecap="round" stroke-linejoin="round"/>  stroke="#C0AC9D" stroke-width="0.25" stroke-linecap="round" stroke-linejoin="round"/>
  <path d="M21.9 33.7L18.1 33.7L17.7 34L18.1 35.7L18 36.3L22 36.3L21.9 35.7L22.3 34L21.9 33.7Z" fill="#161616" stroke="#161616" stroke-width="0.25" stroke-linecap="round" stroke-linejoin="round"/>
  <path d="M36.3 13.7L37.5 8L34.4 3.5L21.9 13.2L26.7 17.6L33.5 19.7L35 17.9L34.3 17.4L35.3 16.4L34.5 15.8L35.5 14.9L34.8 14.4L36.3 13.7Z" fill="#763E1A" stroke="#763E1A" stroke-width="0.25" stroke-linecap="round" stroke-linejoin="round"/>
  <path d="M2.5 8L3.7 13.7L2.2 14.4L2.9 14.9L1.9 15.8L2.7 16.4L1.7 17.4L2.4 17.9L0.9 19.7L7.7 17.6L12.5 13.2L0 3.5L2.5 8Z" fill="#763E1A" stroke="#763E1A" stroke-width="0.25" stroke-linecap="round" stroke-linejoin="round"/>
  <path d="M33.5 19.7L26.7 17.6L28.8 21L25.6 27.7L29.7 27.6L35.9 27.6L33.5 19.7Z" fill="#F5841F" stroke="#F5841F" stroke-width="0.25" stroke-linecap="round" stroke-linejoin="round"/>
  <path d="M7.7 17.6L0.9 19.7L-1.5 27.6L4.7 27.6L8.8 27.7L5.6 21L7.7 17.6Z" fill="#F5841F" stroke="#F5841F" stroke-width="0.25" stroke-linecap="round" stroke-linejoin="round"/>
  <path d="M21.4 21.4L21.9 13.2L24.6 7.4H15.4L18.1 13.2L18.6 21.4L18.8 23.9V30.4L21.2 30.4V23.9L21.4 21.4Z" fill="#F5841F" stroke="#F5841F" stroke-width="0.25" stroke-linecap="round" stroke-linejoin="round"/>
</svg>

