<svg width="300" height="185" viewBox="0 0 300 185" fill="none" xmlns="http://www.w3.org/2000/svg">
  <path d="M61.4385 36.5904C113.93 -12.1968 198.782 -12.1968 251.274 36.5904L256.428 41.3122C258.089 42.8459 258.089 45.4021 256.428 46.9358L234.408 67.2012C233.578 68.0181 232.194 68.0181 231.363 67.2012L224.236 60.6332C186.639 26.3302 126.073 26.3302 88.4761 60.6332L80.7673 67.7096C79.9367 68.5265 78.5528 68.5265 77.7222 67.7096L55.7026 47.4442C54.0415 45.9105 54.0415 43.3543 55.7026 41.8206L61.4385 36.5904ZM280.206 62.6752L299.378 80.2869C301.039 81.8206 301.039 84.3768 299.378 85.9105L218.5 160.296C216.839 161.83 214.24 161.83 212.579 160.296C212.579 160.296 212.579 160.296 212.579 160.296L155.795 108.031C155.38 107.622 154.719 107.622 154.304 108.031C154.304 108.031 154.304 108.031 154.304 108.031L97.5199 160.296C95.8588 161.83 93.2597 161.83 91.5986 160.296C91.5986 160.296 91.5986 160.296 91.5986 160.296L10.6221 85.9105C8.96095 84.3768 8.96095 81.8206 10.6221 80.2869L29.7937 62.6752C31.4548 61.1415 34.0539 61.1415 35.715 62.6752L92.5 114.94C92.9152 115.349 93.5758 115.349 93.991 114.94C93.991 114.94 93.991 114.94 93.991 114.94L150.775 62.6752C152.436 61.1415 155.035 61.1415 156.696 62.6752C156.696 62.6752 156.696 62.6752 156.696 62.6752L213.48 114.94C213.895 115.349 214.556 115.349 214.971 114.94L271.756 62.6752C273.417 61.1415 276.016 61.1415 277.677 62.6752L280.206 62.6752Z" fill="#3B99FC"/>
</svg>

